<svg xmlns="http://www.w3.org/2000/svg" viewBox="0 0 200 200" width="200" height="200">
  <!-- SteelNest Logo: Geometric nest + leaf -->
  <defs>
    <linearGradient id="steelGrad" x1="0%" y1="0%" x2="100%" y2="100%">
      <stop offset="0%" style="stop-color:#2D3436;stop-opacity:1" />
      <stop offset="100%" style="stop-color:#636E72;stop-opacity:1" />
    </linearGradient>
    <linearGradient id="copperGrad" x1="0%" y1="0%" x2="100%" y2="100%">
      <stop offset="0%" style="stop-color:#C9A96E;stop-opacity:1" />
      <stop offset="100%" style="stop-color:#B8953E;stop-opacity:1" />
    </linearGradient>
  </defs>

  <!-- Outer nest shape (hexagonal geometric) -->
  <polygon points="100,20 170,60 170,120 100,160 30,120 30,60"
           fill="none" stroke="url(#steelGrad)" stroke-width="4"
           stroke-linejoin="round" />

  <!-- Inner nest lines (woven steel look) -->
  <line x1="30" y1="60" x2="170" y2="120" stroke="url(#steelGrad)" stroke-width="2.5" opacity="0.6"/>
  <line x1="170" y1="60" x2="30" y2="120" stroke="url(#steelGrad)" stroke-width="2.5" opacity="0.6"/>
  <line x1="100" y1="20" x2="100" y2="160" stroke="url(#steelGrad)" stroke-width="2.5" opacity="0.6"/>
  <line x1="30" y1="60" x2="100" y2="160" stroke="url(#steelGrad)" stroke-width="2" opacity="0.4"/>
  <line x1="170" y1="60" x2="100" y2="160" stroke="url(#steelGrad)" stroke-width="2" opacity="0.4"/>
  <line x1="30" y1="120" x2="100" y2="20" stroke="url(#steelGrad)" stroke-width="2" opacity="0.4"/>
  <line x1="170" y1="120" x2="100" y2="20" stroke="url(#steelGrad)" stroke-width="2" opacity="0.4"/>

  <!-- Leaf symbol (eco accent) sprouting from center -->
  <g transform="translate(100, 90)">
    <!-- Leaf -->
    <path d="M0,0 C-5,-15 -20,-25 -15,-40 C-10,-25 0,-18 0,0"
          fill="#4A7C59" opacity="0.85" />
    <path d="M0,0 C5,-15 20,-25 15,-40 C10,-25 0,-18 0,0"
          fill="#5B8C6A" opacity="0.85" />
    <!-- Leaf vein -->
    <line x1="0" y1="0" x2="0" y2="-35" stroke="#3D6B4A" stroke-width="1.2" opacity="0.7"/>
    <!-- Copper dot at base -->
    <circle cx="0" cy="0" r="3" fill="url(#copperGrad)" />
  </g>
</svg>
